<svg xmlns="http://www.w3.org/2000/svg" viewBox="0 0 256 256" width="256" height="256">
  <g transform="translate(256,0) scale(-1,1)">
  <path d="M86 230 H186 L178 214 H94 Z" fill="none" stroke="#FFFFFF" stroke-width="4.5" stroke-linejoin="round"/>
  <line x1="95" y1="214" x2="95" y2="188" stroke="#FFFFFF" stroke-width="4"/>
  <line x1="113" y1="214" x2="113" y2="188" stroke="#FFFFFF" stroke-width="4"/>
  <path d="M95 188 L103 184 L99 178 L108 174 L104 168 L113 164" fill="none" stroke="#FFFFFF" stroke-width="3" stroke-linejoin="round"/>
  <line x1="95" y1="164" x2="95" y2="84" stroke="#FFFFFF" stroke-width="4"/>
  <line x1="113" y1="164" x2="113" y2="84" stroke="#FFFFFF" stroke-width="4"/>
  <rect x="91" y="140" width="26" height="18" rx="2" fill="none" stroke="#FFFFFF" stroke-width="3.5"/>
  <line x1="117" y1="145" x2="117" y2="153" stroke="#FFFFFF" stroke-width="2"/>
  <path d="M115 140 H179 v9 H115" fill="none" stroke="#FFFFFF" stroke-width="4.5" stroke-linejoin="round"/>
  <rect x="90" y="30" width="94" height="54" rx="6" fill="none" stroke="#FFFFFF" stroke-width="4.5"/>
  <rect x="143" y="84" width="18" height="26" fill="none" stroke="#FFFFFF" stroke-width="3.5"/>
  <rect x="141" y="110" width="22" height="7" rx="1" fill="#FFFFFF" stroke="#FFFFFF" stroke-width="1"/>
  <path d="M143 117 H161 L156 132 H148 Z" fill="none" stroke="#FFFFFF" stroke-width="3.5" stroke-linejoin="round"/>
  <line x1="152" y1="113" x2="152.0" y2="88.0" stroke="#FFFFFF" stroke-width="3.5"/>
  <circle cx="152.0" cy="88.0" r="5.5" fill="#FFFFFF"/>
  <line x1="152" y1="113" x2="173.7" y2="125.5" stroke="#FFFFFF" stroke-width="3.5"/>
  <circle cx="173.7" cy="125.5" r="5.5" fill="#FFFFFF"/>
  <line x1="152" y1="113" x2="130.3" y2="125.5" stroke="#FFFFFF" stroke-width="3.5"/>
  <circle cx="130.3" cy="125.5" r="5.5" fill="#FFFFFF"/>
  <circle cx="152" cy="113" r="7" fill="none" stroke="#FFFFFF" stroke-width="3.5"/>
  <circle cx="152" cy="113" r="2.5" fill="#FFFFFF"/>
  </g>
</svg>
